<?xml version="1.0" standalone="no"?>
<!DOCTYPE svg PUBLIC "-//W3C//DTD SVG 20010904//EN"
 "http://www.w3.org/TR/2001/REC-SVG-20010904/DTD/svg10.dtd">
<svg version="1.0" xmlns="http://www.w3.org/2000/svg"
 width="1024.000000pt" height="1024.000000pt" viewBox="0 0 1024.000000 1024.000000"
 preserveAspectRatio="xMidYMid meet">

<g transform="translate(0.000000,1024.000000) scale(0.100000,-0.100000)"
fill="#000000" stroke="none">
<path d="M5427 8900 c-27 -5 -68 -21 -90 -36 -260 -171 -838 -997 -1101 -1574
-32 -69 -61 -132 -65 -140 -5 -9 -51 -22 -132 -36 -448 -79 -890 -265 -1288
-541 -431 -299 -886 -708 -1091 -981 -83 -110 -187 -302 -275 -507 -59 -136
-108 -236 -191 -385 -78 -142 -104 -214 -104 -294 0 -78 33 -150 94 -210 l46
-44 -115 -170 c-188 -280 -226 -378 -229 -577 -2 -169 31 -263 83 -236 21 11
25 30 35 131 17 170 128 416 277 611 103 134 106 136 150 100 l23 -18 -25
-139 c-21 -121 -24 -169 -23 -369 0 -199 3 -244 23 -334 41 -194 127 -377 231
-494 59 -65 82 -81 109 -72 37 11 32 37 -33 169 -105 213 -146 385 -146 616 0
152 39 377 68 388 8 2 46 -1 85 -8 53 -9 78 -19 97 -39 14 -14 84 -127 154
-251 152 -265 283 -467 397 -611 94 -119 374 -403 466 -472 166 -126 229 -157
261 -125 23 23 12 43 -79 148 -283 326 -432 593 -513 920 -29 118 -49 271 -36
283 8 9 30 3 490 -131 151 -45 322 -93 380 -107 l105 -26 33 -92 c47 -128 159
-355 229 -462 169 -257 425 -503 623 -599 75 -36 93 -41 157 -41 80 0 116 18
142 70 11 24 11 39 -3 104 -8 42 -20 153 -26 246 -14 220 -39 481 -50 524 -5
19 -8 37 -5 39 2 3 68 -36 147 -85 182 -115 254 -156 404 -231 394 -197 800
-315 1089 -316 117 -1 134 1 173 22 60 32 85 74 78 134 -8 71 -29 107 -133
226 -116 132 -200 256 -292 432 -56 108 -161 333 -161 346 0 1 33 14 73 29 39
15 115 43 167 62 52 19 150 64 218 99 l123 64 140 -145 c226 -232 396 -364
595 -461 149 -73 248 -97 375 -92 87 3 104 7 166 38 60 31 71 41 96 89 19 40
27 69 27 109 0 96 -71 374 -183 712 -19 58 -45 143 -57 190 -30 116 -81 220
-127 260 -20 18 -65 46 -99 62 -110 51 -135 89 -93 142 26 33 62 52 115 60
107 18 537 -128 959 -326 371 -174 430 -200 532 -235 142 -47 230 -54 293 -21
143 74 121 244 -90 684 -112 233 -225 423 -415 699 -113 164 -155 306 -136
454 15 114 49 244 110 421 27 80 77 224 110 320 156 452 239 863 230 1137 -4
97 -7 114 -29 146 -32 48 -67 61 -138 54 -175 -15 -527 -291 -844 -662 -266
-311 -521 -688 -675 -994 l-82 -165 -88 -18 c-104 -21 -135 -22 -151 -6 -21
21 -13 78 24 161 48 110 56 194 22 256 -51 95 -126 101 -343 31 -267 -87 -501
-115 -748 -90 l-126 13 85 43 c108 55 168 99 238 174 90 98 109 209 61 373
-13 47 -31 128 -39 180 -11 79 -22 110 -57 174 -74 136 -78 146 -94 257 -16
104 -34 158 -76 218 -12 16 -19 43 -19 70 0 71 -26 139 -79 208 -39 50 -51 75
-56 114 -8 57 -25 94 -65 146 -15 19 -37 54 -48 76 -56 111 -133 153 -245 134z
m63 -283 c0 -17 -23 -50 -96 -133 -139 -162 -346 -455 -505 -719 -78 -128
-125 -212 -310 -545 -49 -87 -70 -116 -87 -118 -12 -2 -22 1 -22 7 0 42 143
353 256 558 146 264 256 428 426 638 118 145 113 140 220 243 80 77 118 99
118 69z m140 -290 c0 -18 -62 -106 -163 -230 -157 -196 -410 -544 -674 -930
-40 -59 -83 -111 -94 -118 -20 -10 -21 -9 -15 17 35 142 389 686 637 979 82
97 282 295 298 295 6 0 11 -6 11 -13z m105 -287 c14 -22 -31 -84 -240 -336
-55 -66 -147 -181 -205 -254 -147 -188 -309 -391 -331 -417 -21 -25 -39 -30
-39 -11 0 34 208 348 360 543 112 144 329 394 391 449 41 37 54 43 64 26z
m2975 -177 c0 -35 -47 -94 -205 -260 -289 -303 -430 -467 -606 -703 -103 -139
-300 -421 -353 -507 -37 -59 -66 -94 -66 -78 0 15 117 256 172 352 279 494
633 918 958 1152 47 33 88 61 93 61 4 0 7 -8 7 -17z m-2876 -130 c10 -26 -27
-74 -270 -339 -126 -137 -267 -291 -313 -342 -50 -55 -92 -92 -103 -92 -19 0
-19 1 -1 31 37 63 151 209 266 343 139 160 387 416 403 416 7 0 15 -7 18 -17z
m2837 -251 c-25 -50 -142 -188 -314 -374 -238 -258 -529 -590 -687 -788 -114
-141 -114 -142 -105 -110 12 38 136 230 234 360 106 142 258 324 412 495 168
186 464 473 476 461 2 -2 -5 -22 -16 -44z m-2726 -42 c19 -60 -128 -207 -438
-440 -76 -56 -140 -101 -142 -98 -13 12 73 116 200 244 141 141 340 314 362
314 6 0 14 -9 18 -20z m103 -293 c6 -28 -104 -125 -220 -194 -123 -73 -262
-139 -256 -121 12 34 430 341 458 336 8 -2 16 -11 18 -21z m2491 -144 c-16
-44 -116 -169 -219 -277 -52 -54 -203 -193 -335 -309 -132 -115 -250 -219
-262 -230 -13 -11 -26 -18 -29 -14 -13 13 821 857 847 857 5 0 4 -12 -2 -27z
m-4407 -148 c11 -4 6 -21 -20 -75 -42 -85 -51 -149 -28 -218 32 -96 107 -167
244 -229 131 -60 152 -94 117 -194 -30 -83 -23 -151 29 -281 25 -64 46 -127
46 -140 0 -12 -11 -54 -25 -93 -29 -83 -32 -161 -8 -236 14 -46 32 -69 124
-160 l107 -106 31 -99 c56 -178 139 -276 239 -277 87 -1 127 30 215 168 27 43
45 56 122 95 128 65 161 122 137 240 -25 121 -13 156 83 242 46 43 67 70 79
105 31 91 16 143 -68 231 -30 32 -60 71 -66 87 -6 16 -16 97 -21 180 -6 82
-14 167 -18 187 -11 46 1 58 55 58 118 0 166 -39 239 -196 62 -132 110 -189
207 -245 172 -100 202 -175 136 -336 -25 -62 -31 -93 -32 -153 -1 -100 33
-211 79 -257 29 -29 39 -33 88 -33 86 0 130 41 178 168 18 46 41 90 53 97 48
34 136 9 219 -63 51 -44 103 -64 146 -56 83 17 158 119 168 230 13 143 -121
368 -281 472 -39 25 -107 82 -151 126 -69 70 -91 101 -157 226 -42 80 -74 148
-70 152 13 13 266 89 314 95 84 10 96 -19 48 -113 -62 -121 -47 -174 61 -214
35 -13 80 -31 100 -41 63 -31 149 -120 216 -221 68 -104 88 -121 131 -116 38
4 67 54 81 140 14 85 41 138 71 138 33 0 108 -40 136 -72 57 -68 103 -209 125
-383 24 -192 -1 -540 -40 -565 -7 -4 -55 -12 -107 -19 -150 -18 -240 -54 -328
-132 -20 -17 -82 -95 -138 -172 -176 -244 -262 -348 -380 -463 -208 -201 -437
-340 -713 -434 l-131 -43 -109 110 c-101 101 -119 115 -215 161 -200 98 -343
117 -795 108 -277 -6 -343 -5 -410 8 -102 20 -131 20 -181 -3 -105 -48 -124
-183 -40 -279 80 -91 354 -296 642 -478 316 -201 607 -360 960 -528 382 -180
416 -197 412 -201 -9 -9 -185 27 -296 61 -340 103 -641 236 -957 422 -183 108
-444 285 -553 376 -57 47 -112 86 -122 86 -24 0 -75 -62 -97 -118 l-18 -43
-70 6 c-199 18 -588 85 -608 104 -5 5 16 23 45 42 140 90 342 275 467 428 118
144 226 328 270 458 89 264 56 591 -85 851 -48 88 -80 118 -113 107 -64 -20
-65 -68 -6 -195 156 -333 131 -671 -75 -1001 -249 -399 -600 -621 -930 -587
-104 10 -336 60 -352 76 -7 7 -2 32 17 78 41 102 41 102 -160 205 -94 49 -198
103 -231 120 -66 35 -88 34 -105 -4 -13 -28 4 -70 70 -175 27 -43 45 -88 56
-140 77 -352 140 -580 219 -785 14 -37 26 -70 26 -73 0 -19 -35 28 -72 95 -22
42 -51 94 -63 116 -35 65 -137 297 -199 455 -31 80 -69 168 -84 195 l-27 50
-100 6 c-56 3 -115 12 -135 21 -38 16 -100 65 -100 78 0 4 39 10 86 11 79 4
87 6 110 32 30 35 32 89 4 134 -27 46 -93 63 -240 63 -105 0 -121 2 -169 26
-58 29 -91 72 -91 117 0 58 39 104 130 155 144 80 211 186 280 444 45 167 81
245 125 268 26 14 28 13 93 -57 76 -81 116 -99 177 -80 55 17 90 63 110 148
55 233 205 386 493 504 82 34 98 45 147 100 90 103 187 155 355 191 86 18 213
18 248 0 32 -17 87 -74 130 -136 42 -60 88 -89 150 -97 71 -8 131 16 180 73
73 82 81 197 22 314 -25 49 -65 97 -179 210 -80 80 -154 160 -163 176 l-17 31
65 32 c78 38 245 95 336 115 76 17 82 17 100 11z m4291 -327 c-40 -73 -190
-222 -313 -308 -103 -73 -357 -230 -372 -230 -47 0 184 201 549 479 68 51 125
97 129 102 3 5 12 9 20 9 12 0 9 -12 -13 -52z m-3503 -383 c116 -60 44 -262
-80 -221 -41 13 -80 66 -80 108 0 41 26 86 63 108 39 24 59 25 97 5z m3448
-48 c5 -24 -64 -90 -129 -123 -40 -20 -352 -131 -451 -161 -82 -25 125 113
314 208 196 99 258 117 266 76z m47 -330 c20 -29 19 -53 -2 -62 -10 -3 -124
-15 -253 -25 -129 -11 -264 -22 -300 -25 -61 -6 -64 -5 -45 10 43 35 324 109
465 123 92 9 116 5 135 -21z m-145 -248 c166 -23 281 -63 314 -111 48 -69 5
-66 -494 27 -259 49 -286 58 -247 82 37 23 261 24 427 2z m-322 -204 c392 -62
735 -179 855 -291 21 -20 37 -37 35 -39 -2 -2 -80 18 -173 46 -94 28 -318 93
-499 145 -181 52 -335 99 -342 105 -10 8 -11 16 -3 30 12 23 6 23 127 4z m12
-231 c345 -91 709 -239 905 -369 84 -56 153 -120 142 -131 -6 -7 -182 51 -202
66 -17 13 -429 188 -682 290 -248 100 -356 156 -331 171 19 12 20 12 168 -27z
m-697 -582 c97 -48 187 -115 187 -140 0 -34 -112 2 -280 89 -125 65 -147 80
-134 100 15 26 120 3 227 -49z m-132 -193 c182 -94 335 -203 365 -260 14 -28
13 -29 -7 -29 -21 0 -161 75 -434 233 -66 38 -124 73 -129 77 -5 5 -2 19 7 34
16 24 18 25 57 11 22 -8 86 -38 141 -66z m-184 -150 c311 -195 633 -446 633
-492 0 -24 -16 -21 -86 12 -100 47 -616 401 -689 472 l-29 28 24 26 c13 14 30
23 36 21 7 -3 57 -33 111 -67z m48 -330 c50 -41 161 -130 247 -199 132 -105
154 -126 134 -128 -33 -4 -151 38 -230 82 -121 68 -290 202 -465 369 l-84 81
37 32 38 33 116 -98 c65 -53 158 -131 207 -172z m-2028 221 c140 -13 288 -50
358 -90 30 -17 55 -34 55 -36 0 -6 -28 -2 -250 32 -173 27 -390 42 -390 28 0
-5 93 -40 208 -78 357 -118 562 -211 653 -297 45 -41 63 -79 39 -79 -15 0
-199 68 -520 193 -157 60 -323 125 -370 142 -47 18 -146 55 -220 83 -74 27
-155 59 -180 70 l-45 19 115 12 c192 19 337 20 547 1z m-667 -125 c36 -18 198
-94 360 -168 541 -248 746 -351 1003 -505 115 -68 231 -158 223 -171 -3 -5
-85 23 -183 62 -202 79 -722 339 -1008 501 -176 101 -505 311 -505 322 0 9 42
-7 110 -41z m-442 -880 c55 -93 155 -255 221 -360 66 -104 118 -191 116 -194
-15 -15 -167 166 -260 309 -76 117 -118 198 -161 315 -33 89 -43 129 -25 110
4 -6 53 -86 109 -180z m202 34 c112 -150 370 -551 370 -573 0 -33 -171 177
-276 340 -62 97 -164 284 -164 302 0 22 10 12 70 -69z m243 -47 c68 -101 124
-212 107 -212 -19 0 -100 122 -164 245 -65 125 -40 111 57 -33z"/>
<path d="M4054 5771 c-46 -28 -64 -59 -64 -111 0 -112 123 -187 210 -127 86
58 92 174 14 236 -35 28 -116 29 -160 2z"/>
<path d="M2823 5735 c-160 -35 -302 -161 -364 -324 -26 -69 -35 -203 -20 -286
17 -92 65 -179 140 -254 36 -37 89 -79 117 -93 263 -140 586 -15 694 270 75
197 24 423 -126 561 -78 71 -143 105 -239 126 -84 18 -120 18 -202 0z m254
-161 c72 -34 139 -102 178 -180 28 -55 30 -67 30 -164 -1 -98 -3 -109 -32
-165 -40 -77 -112 -147 -186 -181 -53 -24 -68 -26 -145 -22 -75 3 -96 9 -150
38 -105 56 -178 153 -203 272 -34 155 50 322 198 397 98 49 212 51 310 5z"/>
<path d="M2881 5488 c-91 -16 -162 -89 -183 -189 -17 -82 8 -159 72 -221 56
-54 110 -73 184 -64 106 12 189 98 202 206 19 167 -114 297 -275 268z"/>
<path d="M7284 5621 c-109 -49 -127 -203 -31 -261 61 -38 127 -18 183 55 20
26 29 51 32 89 5 62 -7 90 -51 116 -40 25 -80 25 -133 1z"/>
<path d="M5753 5321 c-54 -25 -89 -79 -108 -167 -19 -89 -19 -165 0 -239 30
-115 92 -170 191 -169 68 0 113 29 149 96 25 45 29 66 33 153 7 169 -37 287
-121 326 -53 24 -91 24 -144 0z"/>
<path d="M6473 4750 c-61 -37 -86 -105 -59 -158 32 -62 83 -65 150 -10 52 42
71 89 56 134 -7 19 -20 39 -30 44 -30 16 -82 12 -117 -10z"/>
<path d="M3650 4747 c-18 -9 -40 -48 -85 -152 -90 -208 -180 -336 -298 -422
-28 -21 -103 -65 -167 -98 -99 -52 -115 -64 -118 -87 -3 -21 3 -30 27 -42 41
-21 60 -20 148 9 114 39 208 98 299 189 121 122 210 267 264 430 31 94 31 143
1 167 -27 22 -37 23 -71 6z"/>
</g>
</svg>
